<svg width="20" height="20" viewBox="0 0 20 20" fill="none" xmlns="http://www.w3.org/2000/svg">
<path fill-rule="evenodd" clip-rule="evenodd" d="M10 0C4.47715 0 0 4.47715 0 10C0 15.5228 4.47715 20 10 20C15.5228 20 20 15.5228 20 10C20 4.47715 15.5228 0 10 0ZM8.5945 2.12306C9.0508 2.04219 9.5205 2 10 2C11.9493 2 13.7358 2.6972 15.1237 3.85583C13.973 4.85246 12.6874 5.69701 11.298 6.35845C10.497 4.87912 9.5926 3.46408 8.5945 2.12306ZM6.57321 2.76902C4.48083 3.76236 2.88811 5.63714 2.27479 7.91359C4.68198 8.156 7.13827 7.88673 9.4319 7.11395C8.5922 5.58813 7.6353 4.13578 6.57321 2.76902ZM2.00066 9.896C2.00022 9.9306 2 9.9653 2 10C2 11.9273 2.68154 13.6954 3.81676 15.0765C5.57152 12.7505 8.0362 10.9884 10.8893 10.1133C10.7176 9.7088 10.538 9.3084 10.3508 8.9124C7.6853 9.8575 4.81224 10.1902 2.00066 9.896ZM5.28059 16.4603C6.60357 17.4284 8.235 18 10 18C11.0717 18 12.0941 17.7893 13.0282 17.407C12.7097 15.5411 12.2345 13.7286 11.6167 11.9835C9.0392 12.7393 6.82113 14.3371 5.28059 16.4603ZM14.8686 16.3485C16.3102 15.2413 17.3639 13.6541 17.7907 11.8259C16.4208 11.4998 14.9933 11.4183 13.5948 11.5814C14.127 13.1243 14.5545 14.7162 14.8686 16.3485ZM17.9981 9.822C17.9614 8.1425 17.4072 6.5906 16.4885 5.31938C15.2005 6.44362 13.759 7.39707 12.1997 8.1442C12.4341 8.6435 12.6571 9.1493 12.8682 9.6613C14.5687 9.4014 16.3173 9.4551 17.9981 9.822Z" fill="#09244B"/>
</svg>
