<svg width="18" height="18" viewBox="0 0 18 18" fill="none" xmlns="http://www.w3.org/2000/svg">
<path fill-rule="evenodd" clip-rule="evenodd" d="M13 -8.83825e-08C15.7614 -1.07156e-07 18 2.23858 18 5L18 13C18 15.7614 15.7614 18 13 18L5 18C2.23858 18 1.07156e-07 15.7614 8.83825e-08 13L3.39933e-08 5C1.52193e-08 2.23858 2.23858 -1.52193e-08 5 -3.39933e-08L13 -8.83825e-08ZM13 2L5 2C3.34315 2 2 3.34315 2 5L2 13C2 14.6569 3.34315 16 5 16L13 16C14.6569 16 16 14.6569 16 13L16 5C16 3.34315 14.6569 2 13 2ZM9 5C11.2091 5 13 6.79086 13 9C13 11.2091 11.2091 13 9 13C6.79086 13 5 11.2091 5 9C5 6.79086 6.79086 5 9 5ZM9 7C7.8954 7 7 7.8954 7 9C7 10.1046 7.8954 11 9 11C10.1046 11 11 10.1046 11 9C11 7.8954 10.1046 7 9 7ZM13.5 3.5C14.0523 3.5 14.5 3.94772 14.5 4.5C14.5 5.05228 14.0523 5.5 13.5 5.5C12.9477 5.5 12.5 5.05228 12.5 4.5C12.5 3.94772 12.9477 3.5 13.5 3.5Z" fill="#09244B"/>
</svg>
