<svg width="240" height="142" viewBox="0 0 240 142" fill="none" xmlns="http://www.w3.org/2000/svg">
<path fill-rule="evenodd" clip-rule="evenodd" d="M178.392 118.557H54.159C40.8767 118.557 30.074 107.825 30.074 94.625V23.9323C30.074 10.7342 40.875 0 54.159 0H200.077C213.359 0 224.162 10.7342 224.162 23.9323V69.0235C224.162 71.1863 221.774 72.5389 219.902 71.4109C200.719 59.8415 174.974 73.4773 174.974 96.7411C174.974 110.828 182.768 113.338 180.894 117.025C180.423 117.977 179.466 118.559 178.392 118.559L178.392 118.557ZM54.1761 5.59306C43.9997 5.59306 35.7169 13.8234 35.7169 23.9353V94.628C35.7169 104.74 43.9997 112.97 54.1761 112.97L173.352 112.969C158.152 84.0083 188.056 51.5523 218.555 64.4616V23.9337C218.555 13.8217 210.272 5.5914 200.096 5.5914H54.1779L54.1761 5.59306Z" fill="#2D2D2D"/>
<path fill-rule="evenodd" clip-rule="evenodd" d="M127.131 74.222C126.545 74.222 125.979 74.0473 125.492 73.6979L37.9402 10.8292C34.9582 8.66971 38.2533 4.14453 41.2403 6.30731L127.129 67.9707L213.017 6.30731C215.984 4.15944 219.309 8.66481 216.317 10.8292L128.77 73.6979C128.283 74.0473 127.715 74.222 127.129 74.222H127.131Z" fill="#2D2D2D"/>
<path fill-rule="evenodd" clip-rule="evenodd" d="M39.1522 112.346C36.4314 112.346 35.303 108.854 37.5298 107.282L108.515 56.9516C111.527 54.8253 114.785 59.3889 111.776 61.5118L40.7914 111.842C40.2841 112.171 39.7165 112.346 39.1506 112.346L39.1522 112.346Z" fill="#2D2D2D"/>
<path fill-rule="evenodd" clip-rule="evenodd" d="M175.872 84.5322C175.304 84.5322 174.738 84.3575 174.231 84.0081L142.487 61.4932C139.458 59.3553 142.765 54.8115 145.769 56.9312L177.511 79.4462C179.764 81.0384 178.549 84.5322 175.872 84.5322Z" fill="#2D2D2D"/>
<path fill-rule="evenodd" clip-rule="evenodd" d="M32.9024 32.052H2.78146C-0.927154 32.052 -0.927154 26.4619 2.78146 26.4619H32.9024C36.611 26.4619 36.611 32.052 32.9024 32.052Z" fill="#2D2D2D"/>
<path fill-rule="evenodd" clip-rule="evenodd" d="M32.9029 48.8855H7.01936C3.31242 48.8855 3.31075 43.2954 7.01936 43.2954H32.9029C36.6115 43.2954 36.6115 48.8855 32.9029 48.8855Z" fill="#2D2D2D"/>
<path fill-rule="evenodd" clip-rule="evenodd" d="M32.9189 65.7595H10.4546C6.74594 65.7595 6.74594 60.1694 10.4546 60.1694L32.9189 60.1711C36.6259 60.1711 36.6275 65.7612 32.9189 65.7612V65.7595Z" fill="#2D2D2D"/>
<path fill-rule="evenodd" clip-rule="evenodd" d="M204.683 131.846C185.207 131.846 169.366 116.104 169.366 96.7531C169.366 77.4006 185.209 61.6602 204.683 61.6602C224.159 61.6602 240 77.4023 240 96.7531C240 116.086 224.159 131.846 204.683 131.846ZM204.683 67.2311C188.313 67.2311 174.992 80.4692 174.992 96.7339C174.992 113 188.315 126.237 204.683 126.237C221.053 126.237 234.374 112.999 234.374 96.7339C234.374 80.468 221.051 67.2311 204.683 67.2311Z" fill="#2D2D2D"/>
<path fill-rule="evenodd" clip-rule="evenodd" d="M206.092 111.785C203.582 111.785 202.343 108.77 204.099 107.01L211.892 99.2668H187.592C183.895 99.2668 183.894 93.6768 187.592 93.6768L218.69 93.6784C221.201 93.6784 222.432 96.713 220.682 98.4516L208.083 110.971C207.535 111.515 206.812 111.786 206.09 111.786L206.092 111.785Z" fill="#2D2D2D"/>
<path fill-rule="evenodd" clip-rule="evenodd" d="M218.688 99.2604H187.591C183.894 99.2604 183.892 93.6703 187.591 93.6703L211.892 93.6719L204.1 85.9272C201.501 83.3451 205.426 79.349 208.084 81.9675L220.685 94.4885C222.458 96.2503 221.183 99.2616 218.693 99.2616L218.688 99.2604Z" fill="#2D2D2D"/>
<path fill-rule="evenodd" clip-rule="evenodd" d="M146.799 132.16H107.457C103.754 132.16 103.754 126.57 107.457 126.57H146.799C150.489 126.57 150.512 132.16 146.799 132.16Z" fill="#2D2D2D"/>
<path fill-rule="evenodd" clip-rule="evenodd" d="M160.712 142H93.5548C89.8512 142 89.8512 136.41 93.5548 136.41H160.695C164.389 136.41 164.395 142 160.713 142H160.712Z" fill="#2D2D2D"/>
</svg>
