<svg width="20" height="20" viewBox="0 0 20 20" fill="none" xmlns="http://www.w3.org/2000/svg">
<path fill-rule="evenodd" clip-rule="evenodd" d="M2 10C2 5.58172 5.58172 2 10 2C14.4183 2 18 5.58172 18 10C18 14.0796 14.9463 17.446 11 17.9381L11 12L13 12C13.5523 12 14 11.5523 14 11C14 10.4477 13.5523 10 13 10L11 10L11 8C11 7.44772 11.4477 7 12 7L12.5 7C13.0523 7 13.5 6.55228 13.5 6C13.5 5.44772 13.0523 5 12.5 5L12 5C10.3431 5 9 6.34315 9 8L9 10L7 10C6.44772 10 6 10.4477 6 11C6 11.5523 6.44772 12 7 12L9 12L9 17.9381C5.05369 17.446 2 14.0796 2 10ZM10 20C15.5228 20 20 15.5228 20 10C20 4.47715 15.5228 -1.05534e-07 10 -6.79865e-08C4.47715 -3.04386e-08 3.04386e-08 4.47715 6.79865e-08 10C1.05534e-07 15.5228 4.47715 20 10 20Z" fill="#09244B"/>
</svg>
