<svg width="19" height="17" viewBox="0 0 19 17" fill="none" xmlns="http://www.w3.org/2000/svg">
<path fill-rule="evenodd" clip-rule="evenodd" d="M14.8171 2.98899C14.4641 2.48074 13.5202 1.76743 11.991 2.07458C11.0994 2.25368 10.5659 2.69571 10.2269 3.27725C9.8657 3.89668 9.6912 4.73972 9.6912 5.72114C9.6912 6.2734 9.2435 6.7211 8.6912 6.7211C6.32512 6.7211 4.07321 6.0185 2.17819 4.11692C2.05529 4.80098 1.96954 5.61379 2.01021 6.4566C2.06261 7.5426 2.3223 8.6322 2.93722 9.5652C3.54164 10.4823 4.53719 11.3224 6.20065 11.8497C6.53233 11.9548 6.78552 12.2248 6.86916 12.5625C6.95281 12.9002 6.85489 13.2572 6.61061 13.505C6.01965 14.1044 5.42529 14.554 4.81459 14.9099C5.87536 15.0196 6.89712 15.0276 7.8447 14.9419C9.7643 14.7683 11.2936 14.2189 12.25 13.4428C14.2626 11.8096 15.3404 9.3759 15.1394 5.29825C15.1064 4.62723 15.7526 3.90478 16.0647 3.35616C15.5938 3.44421 15.1218 3.42772 14.8171 2.98899ZM1.59375 0.983791C1.9629 0.940761 2.32546 1.10599 2.53516 1.41282C4.01054 3.57163 5.78262 4.46969 7.7489 4.67401C7.8454 3.83282 8.0724 3.00167 8.4991 2.26991C9.125 1.19626 10.143 0.405821 11.5972 0.113741C13.6066 -0.289859 15.1366 0.437841 16.0244 1.32905L17.8162 0.994091C18.199 0.922551 18.5884 1.07965 18.8144 1.39673C19.0403 1.71381 19.0617 2.13321 18.8691 2.47162L17.1496 5.4937C17.3064 9.8551 16.0944 12.8988 13.5103 14.9958C12.1395 16.1081 10.178 16.739 8.0249 16.9338C5.85497 17.1301 3.40214 16.8927 0.963824 16.1807C0.536044 16.0558 0.242544 15.6629 0.244124 15.2173C0.245694 14.7716 0.541954 14.3808 0.970604 14.2589C2.19682 13.9102 3.13012 13.6087 3.97377 13.0822C2.77531 12.4459 1.89225 11.6141 1.26726 10.6658C0.398594 9.3477 0.076484 7.8783 0.012534 6.553C-0.051406 5.22784 0.140094 4.00048 0.341784 3.11465C0.456594 2.61039 0.590694 2.10378 0.775534 1.61983C0.909784 1.27103 1.22461 1.02683 1.59375 0.983791Z" fill="#09244B"/>
</svg>
