<svg width="20" height="16" viewBox="0 0 20 16" fill="none" xmlns="http://www.w3.org/2000/svg">
<path d="M10 0C10.8554 0 11.7316 0.0224187 12.5817 0.0577669L13.5861 0.105783L14.5475 0.162569L15.4476 0.224479L16.2685 0.28787C18.1065 0.43702 19.5836 1.85942 19.7633 3.71109L19.8031 4.13563L19.8781 5.04557C19.9482 5.9888 20 7.01733 20 8C20 8.98267 19.9482 10.0112 19.8781 10.9544L19.8031 11.8644C19.79 12.0097 19.7767 12.1514 19.7633 12.2889C19.5836 14.1406 18.1065 15.563 16.2685 15.7121L15.4476 15.7755L14.5475 15.8374L13.5861 15.8942L12.5817 15.9422C11.7316 15.9776 10.8554 16 10 16C9.14459 16 8.26838 15.9776 7.41834 15.9422L6.41386 15.8942L5.45253 15.8374L4.5524 15.7755L3.7315 15.7121C1.89351 15.563 0.4164 14.1406 0.23668 12.2889L0.196922 11.8644L0.121923 10.9544C0.0517956 10.0112 0 8.98267 0 8C0 7.01733 0.0517956 5.9888 0.121923 5.04557L0.196922 4.13563C0.210027 3.99033 0.223331 3.84861 0.23668 3.71109C0.4164 1.85942 1.89351 0.43702 3.7315 0.28787L4.5524 0.224479L5.45253 0.162569L6.41385 0.105783L7.41834 0.0577669C8.26838 0.0224187 9.14459 0 10 0ZM10 2C9.17464 2 8.32594 2.02172 7.49966 2.05611L6.52183 2.10287L5.5831 2.15831L4.70106 2.21895L3.89327 2.28131C3.00396 2.35348 2.31194 3.03249 2.22732 3.9043C2.11002 5.11288 2 6.6181 2 8C2 9.3819 2.11002 10.8871 2.22732 12.0957C2.31194 12.9675 3.00396 13.6465 3.89327 13.7187L4.70106 13.7811L5.5831 13.8417L6.52183 13.8972L7.49966 13.9439C8.32594 13.9783 9.17464 14 10 14C10.8253 14 11.6741 13.9783 12.5003 13.9439L13.4782 13.8972L14.4169 13.8417L15.2989 13.7811L16.1067 13.7187C16.996 13.6465 17.6881 12.9675 17.7727 12.0957C17.89 10.8871 18 9.3819 18 8C18 6.6181 17.89 5.11288 17.7727 3.9043C17.6881 3.03249 16.996 2.35348 16.1067 2.28131L15.2989 2.21895L14.4169 2.15831L13.4782 2.10287L12.5003 2.05611C11.6741 2.02172 10.8253 2 10 2ZM8 5.57513C8 5.14404 8.43556 4.86383 8.81884 5.01615L8.9 5.05551L13.1 7.4804C13.4692 7.69354 13.4976 8.20192 13.1852 8.46048L13.1 8.5196L8.9 10.9445C8.52667 11.16 8.06622 10.923 8.00649 10.5149L8 10.4249V5.57513Z" fill="#09244B"/>
</svg>
