<svg width="80" height="60" viewBox="0 0 80 60" fill="none" xmlns="http://www.w3.org/2000/svg">
<mask id="path-1-inside-1_368_717" fill="white">
<path d="M0 60L74 60C77.3137 60 80 57.3137 80 54L80 2.22526e-05L5.24537e-06 1.52588e-05L0 60Z"/>
</mask>
<path d="M-2.62268e-07 63L74 63C78.9706 63 83 58.9706 83 54L77 54C77 55.6569 75.6569 57 74 57L2.62268e-07 57L-2.62268e-07 63ZM80 2.22526e-05L5.24537e-06 1.52588e-05L80 2.22526e-05ZM5.24537e-06 1.52588e-05L0 60L5.24537e-06 1.52588e-05ZM74 63C78.9706 63 83 58.9706 83 54L83 2.25149e-05L77 2.19903e-05L77 54C77 55.6569 75.6569 57 74 57L74 63Z" fill="#FF8200" mask="url(#path-1-inside-1_368_717)"/>
</svg>
