<svg width="145" height="49" viewBox="0 0 145 49" fill="none" xmlns="http://www.w3.org/2000/svg">
<path fill-rule="evenodd" clip-rule="evenodd" d="M5.90212 38.4104L5.90211 11.3434L33.0518 11.3434L33.0518 18.8153L38.954 18.8153L38.954 11.3434L38.954 5.44133L33.0518 5.44133L5.90211 5.44133L-1.69911e-06 5.44133L-1.44112e-06 11.3434L-2.5799e-07 38.4104L0 44.3125L5.90212 44.3125L33.0518 44.3125L38.954 44.3125L38.954 44.3124L23.6084 44.3124L23.6084 38.4104L5.90212 38.4104Z" fill="#6E2B9E"/>
<path d="M32.2402 43.3463L38.0151 37.5908L33.833 33.4254L32.2403 31.8379L32.2402 43.3463Z" fill="#CC55BB"/>
<path d="M32.0474 43.3464V31.8379L26.2725 37.5909L32.0474 43.3464Z" fill="#FF8200"/>
<path d="M34.002 24.9819V28.886L37.9163 24.9819H34.002Z" fill="#A05EB5"/>
<path d="M38.25 24.8854H42.4046L38.25 20.7476V24.8854Z" fill="#00B388"/>
<path d="M38.0573 33.1198V25.1221L34.0435 29.1225L38.0573 33.1198Z" fill="#FFC600"/>
<path d="M34.002 20.7476H38.0572V24.7892H34.002V20.7476Z" fill="#FF8200"/>
<path d="M38.0572 37.357V33.3981L34.002 29.3564V33.3156L38.0572 37.357Z" fill="#91D6AC"/>
<path d="M59.3633 18.1944C61.5984 18.1944 63.5031 17.3975 64.7664 15.9204L63.1338 14.3655C62.1426 15.4539 60.9182 15.9787 59.4994 15.9787C56.6812 15.9787 54.6405 13.9963 54.6405 11.1975C54.6405 8.39882 56.6812 6.41639 59.4994 6.41639C60.9182 6.41639 62.1426 6.94115 63.1338 8.01011L64.7664 6.4747C63.5031 4.99759 61.5984 4.20074 59.3828 4.20074C55.2041 4.20074 52.0944 7.13551 52.0944 11.1975C52.0944 15.2596 55.2041 18.1944 59.3633 18.1944ZM69.267 9.13737V7.6214H66.9541V18H69.3836V12.9662C69.3836 10.8477 70.5497 9.75931 72.3961 9.75931C72.571 9.75931 72.7459 9.77875 72.9597 9.81762V7.50478C71.23 7.50478 69.9667 8.04898 69.267 9.13737ZM84.6824 12.869C84.6824 9.62326 82.4668 7.50478 79.4348 7.50478C76.3446 7.50478 74.0706 9.72044 74.0706 12.8107C74.0706 15.901 76.3251 18.136 79.8041 18.136C81.5922 18.136 83.0498 17.553 83.9828 16.4452L82.6806 14.9486C81.942 15.7066 81.0285 16.0759 79.8624 16.0759C78.0549 16.0759 76.7916 15.1041 76.5001 13.5881H84.6436C84.663 13.3549 84.6824 13.0634 84.6824 12.869ZM79.4348 9.44834C81.0285 9.44834 82.1752 10.4784 82.3696 11.975H76.4806C76.7138 10.459 77.8605 9.44834 79.4348 9.44834ZM90.6962 7.50478C89.0248 7.50478 87.4116 7.93237 86.3038 8.78753L87.2561 10.5562C88.0336 9.9148 89.2386 9.52609 90.4047 9.52609C92.1345 9.52609 92.9896 10.3618 92.9896 11.7806V11.9361H90.3075C87.159 11.9361 85.9928 13.2966 85.9928 15.0264C85.9928 16.8339 87.4894 18.136 89.8605 18.136C91.4153 18.136 92.5426 17.6307 93.1257 16.7367V18H95.4191V11.9167C95.4191 8.92358 93.6893 7.50478 90.6962 7.50478ZM90.3658 16.3674C89.1219 16.3674 88.3834 15.8038 88.3834 14.9292C88.3834 14.1712 88.8304 13.5493 90.4824 13.5493H92.9896V14.7543C92.5815 15.8232 91.5514 16.3674 90.3658 16.3674ZM104.096 15.7066C103.726 15.9981 103.24 16.1342 102.735 16.1342C101.802 16.1342 101.297 15.59 101.297 14.5793V9.6427H104.076V7.69914H101.297V5.328H98.8674V7.69914H97.157V9.6427H98.8674V14.6376C98.8674 16.931 100.17 18.136 102.444 18.136C103.318 18.136 104.193 17.9028 104.776 17.4364L104.096 15.7066ZM107.999 5.91107C108.912 5.91107 109.554 5.25026 109.554 4.39509C109.554 3.59823 108.893 2.99573 107.999 2.99573C107.105 2.99573 106.444 3.6371 106.444 4.4534C106.444 5.26969 107.105 5.91107 107.999 5.91107ZM106.774 18H109.204V7.6214H106.774V18ZM119.778 7.6214L116.454 15.3179L113.228 7.6214H110.702L115.152 18H117.659L122.11 7.6214H119.778ZM133.101 12.869C133.101 9.62326 130.885 7.50478 127.853 7.50478C124.763 7.50478 122.489 9.72044 122.489 12.8107C122.489 15.901 124.743 18.136 128.222 18.136C130.01 18.136 131.468 17.553 132.401 16.4452L131.099 14.9486C130.36 15.7066 129.447 16.0759 128.281 16.0759C126.473 16.0759 125.21 15.1041 124.918 13.5881H133.062C133.081 13.3549 133.101 13.0634 133.101 12.869ZM127.853 9.44834C129.447 9.44834 130.593 10.4784 130.788 11.975H124.899C125.132 10.459 126.279 9.44834 127.853 9.44834ZM138.641 18.136C141.556 18.136 143.344 16.8727 143.344 14.9292C143.344 10.8671 136.931 12.733 136.931 10.6339C136.931 9.95367 137.63 9.46778 139.108 9.46778C140.099 9.46778 141.09 9.66213 142.081 10.2452L143.014 8.39882C142.081 7.83519 140.507 7.50478 139.127 7.50478C136.328 7.50478 134.56 8.78753 134.56 10.7505C134.56 14.8903 140.973 13.0245 140.973 15.0069C140.973 15.726 140.332 16.1536 138.797 16.1536C137.494 16.1536 136.095 15.726 135.182 15.1235L134.249 16.9699C135.182 17.6307 136.911 18.136 138.641 18.136Z" fill="#6E2B9E"/>
<path d="M62.6285 31.0997V36.7166H55.5928V31.0997H53.0662V44.7046H55.5928V38.8739H62.6285V44.7046H65.1551V31.0997H62.6285ZM76.1862 34.326V39.5736C76.1862 41.6532 75.0395 42.7027 73.3486 42.7027C71.8132 42.7027 70.9192 41.8087 70.9192 39.9234V34.326H68.4897V40.2538C68.4897 43.383 70.2972 44.8406 72.9599 44.8406C74.3009 44.8406 75.5254 44.3353 76.3028 43.383V44.7046H78.6156V34.326H76.1862ZM87.5495 34.2094C86.2279 34.2094 85.0617 34.6564 84.226 35.5893V30.2834H81.7965V44.7046H84.1094V43.3635C84.9257 44.3547 86.1307 44.8406 87.5495 44.8406C90.5814 44.8406 92.8165 42.7416 92.8165 39.5153C92.8165 36.289 90.5814 34.2094 87.5495 34.2094ZM87.2774 42.761C85.5282 42.761 84.1871 41.4977 84.1871 39.5153C84.1871 37.5329 85.5282 36.2695 87.2774 36.2695C89.0266 36.2695 90.3482 37.5329 90.3482 39.5153C90.3482 41.4977 89.0266 42.761 87.2774 42.761Z" fill="#6E2B9E"/>
</svg>
