<svg width="40" height="37" viewBox="0 0 40 37" fill="none" xmlns="http://www.w3.org/2000/svg">
<path fill-rule="evenodd" clip-rule="evenodd" d="M5.49024 30.7451L5.49024 5.49001L30.7453 5.49001L30.7453 12.5175L36.2356 12.5175L36.2356 5.49001L36.2356 -0.000230466L30.7453 -0.000230226L5.49024 -0.000229122L-1.58391e-06 -0.000228882L-1.34392e-06 5.49001L-2.39986e-07 30.7451L0 36.2354L5.49024 36.2354L30.7453 36.2354L36.2356 36.2353L36.2356 36.2353L21.9609 36.2353L21.9609 30.7451L5.49024 30.7451Z" fill="#F8F8F8"/>
<path d="M30.4121 35.9999L35.8595 30.5456L31.9145 26.5981L30.4122 25.0938L30.4121 35.9999Z" fill="#CC55BB"/>
<path d="M30.2301 35.9996V25.0933L24.7827 30.5453L30.2301 35.9996Z" fill="#FF8200"/>
<path d="M32.0737 18.5962V22.296L35.7661 18.5962H32.0737Z" fill="#A05EB5"/>
<path d="M36.0811 18.5048H40.0001L36.0811 14.5835V18.5048Z" fill="#00B388"/>
<path d="M35.899 26.3083V18.729L32.1128 22.5201L35.899 26.3083Z" fill="#FFC600"/>
<path d="M32.0737 14.5835H35.899V18.4137H32.0737V14.5835Z" fill="#FF8200"/>
<path d="M35.899 30.3237V26.5719L32.0737 22.7417V26.4937L35.899 30.3237Z" fill="#91D6AC"/>
</svg>
