<svg width="18" height="19" viewBox="0 0 18 19" fill="none" xmlns="http://www.w3.org/2000/svg">
<path d="M8.98749 7.12939C7.65894 7.12939 6.57812 8.21024 6.57812 9.53876C6.57812 10.8673 7.65897 11.9481 8.98749 11.9481C10.316 11.9481 11.3969 10.8673 11.3969 9.53876C11.3969 8.21024 10.3161 7.12939 8.98749 7.12939Z" fill="#6E2B9E"/>
<path d="M14.5322 0.70459H3.44322C1.62918 0.70459 0.15332 2.18041 0.15332 3.99446V15.0834C0.15332 16.8975 1.62918 18.3733 3.44322 18.3733H14.5322C16.3462 18.3733 17.822 16.8975 17.822 15.0834V3.99446C17.822 2.18041 16.3462 0.70459 14.5322 0.70459ZM8.98768 13.3833C6.86788 13.3833 5.14335 11.6587 5.14335 9.53895C5.14335 7.41922 6.86788 5.69462 8.98768 5.69462C11.1075 5.69462 12.832 7.41918 12.832 9.53895C12.832 11.6587 11.1075 13.3833 8.98768 13.3833ZM14.3436 4.91502C14.2474 5.0113 14.1142 5.06652 13.9778 5.06652C13.8415 5.06652 13.7079 5.0113 13.6117 4.91502C13.5154 4.81874 13.4602 4.68519 13.4602 4.54888C13.4602 4.4126 13.5154 4.27933 13.6117 4.18308C13.7079 4.08642 13.8415 4.03124 13.9778 4.03124C14.1138 4.03124 14.2474 4.08646 14.3436 4.18308C14.4403 4.27933 14.4954 4.41257 14.4954 4.54888C14.4954 4.68519 14.4403 4.81874 14.3436 4.91502Z" fill="#6E2B9E"/>
</svg>
