<svg width="18" height="16" viewBox="0 0 18 16" fill="none" xmlns="http://www.w3.org/2000/svg">
<path d="M9.07812 13.4688C10.3281 12.349 11.2526 11.5026 11.8516 10.9297C12.4505 10.3568 13.1016 9.67969 13.8047 8.89844C14.5078 8.11719 14.9896 7.42708 15.25 6.82812C15.5365 6.22917 15.6797 5.64323 15.6797 5.07031C15.6797 4.23698 15.3932 3.54688 14.8203 3C14.2734 2.45312 13.5833 2.17969 12.75 2.17969C12.099 2.17969 11.487 2.36198 10.9141 2.72656C10.3672 3.09115 9.98958 3.5599 9.78125 4.13281H8.21875C8.01042 3.5599 7.61979 3.09115 7.04688 2.72656C6.5 2.36198 5.90104 2.17969 5.25 2.17969C4.41667 2.17969 3.71354 2.45312 3.14062 3C2.59375 3.54688 2.32031 4.23698 2.32031 5.07031C2.32031 5.64323 2.45052 6.22917 2.71094 6.82812C2.9974 7.42708 3.49219 8.11719 4.19531 8.89844C4.89844 9.67969 5.54948 10.3568 6.14844 10.9297C6.7474 11.5026 7.67188 12.349 8.92188 13.4688L9 13.5469L9.07812 13.4688ZM12.75 0.5C14.0521 0.5 15.1328 0.942708 15.9922 1.82812C16.8776 2.71354 17.3203 3.79427 17.3203 5.07031C17.3203 5.82552 17.1771 6.56771 16.8906 7.29688C16.6042 8 16.0703 8.79427 15.2891 9.67969C14.5339 10.5651 13.8438 11.3073 13.2188 11.9062C12.5938 12.5052 11.5911 13.4297 10.2109 14.6797L9 15.7734L7.78906 14.7188C5.99219 13.1042 4.6901 11.8932 3.88281 11.0859C3.10156 10.2786 2.3724 9.32812 1.69531 8.23438C1.01823 7.14062 0.679688 6.08594 0.679688 5.07031C0.679688 3.79427 1.10938 2.71354 1.96875 1.82812C2.85417 0.942708 3.94792 0.5 5.25 0.5C6.76042 0.5 8.01042 1.08594 9 2.25781C9.98958 1.08594 11.2396 0.5 12.75 0.5Z" fill="#777777"/>
</svg>
