<svg width="88" height="64" viewBox="0 0 88 64" fill="none" xmlns="http://www.w3.org/2000/svg">
<path d="M50 38C46.6667 38 43.8333 36.8333 41.5 34.5C39.1667 32.1667 38 29.3333 38 26C38 22.6667 39.1667 19.8333 41.5 17.5C43.8333 15.1667 46.6667 14 50 14C53.3333 14 56.1667 15.1667 58.5 17.5C60.8333 19.8333 62 22.6667 62 26C62 29.3333 60.8333 32.1667 58.5 34.5C56.1667 36.8333 53.3333 38 50 38ZM18 52C16.3333 52 14.9167 51.4167 13.75 50.25C12.5833 49.0833 12 47.6667 12 46V6C12 4.33333 12.5833 2.91667 13.75 1.75C14.9167 0.583333 16.3333 0 18 0H82C83.6667 0 85.0833 0.583333 86.25 1.75C87.4167 2.91667 88 4.33333 88 6V46C88 47.6667 87.4167 49.0833 86.25 50.25C85.0833 51.4167 83.6667 52 82 52H18ZM28 49H72C72 46.2 74.9667 41.8333 76.9 39.9C78.8333 37.9667 82.2 36 85 36V16C82.2 16 78.8333 14.0333 76.9 12.1C74.9667 10.1667 72 5.8 72 3H28C28 5.8 25.0333 10.1667 23.1 12.1C21.1667 14.0333 17.8 16 15 16V36C17.8 36 21.1667 37.9667 23.1 39.9C25.0333 41.8333 28 46.2 28 49ZM76 64H6C4.33333 64 2.91667 63.4167 1.75 62.25C0.583333 61.0833 0 59.6667 0 58V12H4V60H76V64Z" fill="#F8F8F8"/>
</svg>
