<svg width="88" height="88" viewBox="0 0 88 88" fill="none" xmlns="http://www.w3.org/2000/svg">
<path d="M76.64 67.1361C76.64 61.8561 79.712 54.5601 83.456 50.8161C87.2 47.0721 87.2 41.0241 83.456 37.2801C79.712 33.5361 76.64 26.2401 76.64 20.9601C76.64 15.6801 72.32 11.3601 67.04 11.3601C61.76 11.3601 54.464 8.28808 50.72 4.54408C47.072 0.800084 40.928 0.800084 37.184 4.54408C33.44 8.28808 26.144 11.3601 20.864 11.3601C15.584 11.3601 11.264 15.6801 11.264 20.9601C11.264 26.2401 8.192 33.5361 4.448 37.2801C0.800002 40.9281 0.800001 47.0721 4.544 50.8161C8.288 54.5601 11.36 61.8561 11.36 67.1361C11.36 72.4161 15.68 76.7361 20.96 76.7361C26.24 76.7361 33.536 79.8081 37.28 83.5521C41.024 87.2961 47.072 87.2961 50.816 83.5521C54.56 79.8081 61.856 76.7361 67.136 76.7361C72.416 76.6401 76.64 72.4161 76.64 67.1361Z" stroke="#F8F8F8" stroke-width="3" stroke-miterlimit="10"/>
<path d="M26.72 44.8641L37.376 56.0961L61.28 31.9041" stroke="#F8F8F8" stroke-width="3" stroke-miterlimit="10" stroke-linecap="round" stroke-linejoin="round"/>
</svg>
