<svg width="82" height="72" viewBox="0 0 82 72" fill="none" xmlns="http://www.w3.org/2000/svg">
<path d="M73.1466 32.1926C73.6256 29.1359 73.8618 26.2588 73.9415 23.6419C79.5738 23.8511 81.2115 17.3068 81.2115 17.3068C76.6976 17.1455 74.6835 20.8166 73.9635 22.6406C74.0058 20.0073 73.8944 17.6649 73.7235 15.7007C79.3501 15.9033 80.9859 9.36571 80.9859 9.36571C76.2647 9.19675 74.2823 13.2134 73.6515 14.9308C73.4183 12.5875 73.113 10.8575 72.9258 9.93307C72.9747 9.75739 74.7152 3.43771 69.4784 0.690186C69.4784 0.690186 67.7783 6.72474 72.1223 9.50107C72.2029 9.85242 72.3987 10.7663 72.609 12.1603C71.7229 10.2086 69.8163 7.52539 66.0023 7.48987C66.0023 7.48987 67.3271 14.0102 72.8691 14.1417C73.0871 16.0492 73.2666 18.455 73.2791 21.2428C72.6973 19.4582 70.8839 15.4751 66.2288 15.4319C66.2288 15.4319 67.5795 22.1049 73.2791 22.0905C73.257 24.7977 73.0679 27.8342 72.6071 31.0915C72.1789 29.5804 70.4605 24.9523 65.4407 24.9052C65.4407 24.9052 66.7981 31.6175 72.537 31.5657C72.3075 33.1055 72.0157 34.6924 71.6509 36.3167C71.0893 34.3622 69.4717 30.7391 65.1229 30.3945C65.1229 30.3945 65.9763 36.8841 71.3754 37.4947C70.8992 39.4454 70.3175 41.4431 69.6061 43.4735C69.3901 43.9103 69.0359 44.5967 68.5386 45.4771C69.0455 43.3948 69.201 40.103 66.2173 37.7222C66.2173 37.7222 63.2394 43.6761 67.5258 47.1945C66.5197 48.8361 65.1757 50.8463 63.4621 53.0553C64.1043 51.3033 65.1517 47.0284 61.4999 44.1148C61.4999 44.1148 58.449 50.2031 62.9485 53.7052C61.2599 55.8278 59.2391 58.1039 56.8631 60.3887C57.4535 58.9507 58.9751 54.2284 55.0391 51.0883C55.0391 51.0883 51.9661 57.2169 56.5271 60.7132C52.8167 64.2326 48.2634 67.7471 42.7722 70.6991L43.1015 71.3107C44.5184 70.5484 45.8663 69.7468 47.1623 68.9193C51.1971 72.7075 56.7152 69.0038 56.7152 69.0038C54.2298 66.5942 51.3306 66.8428 49.3175 67.4822C51.7491 65.7878 53.9495 64.0089 55.928 62.2118C60.2547 66.0326 65.6787 61.8019 65.6787 61.8019C62.1805 58.8556 58.2839 60.5817 56.6269 61.5695C58.8839 59.4604 60.8394 57.3455 62.5127 55.3372C66.8183 58.9708 72.1395 54.8284 72.1395 54.8284C68.6951 51.9283 64.857 53.5593 63.1587 54.5529C64.8119 52.5081 66.1607 50.6006 67.2349 48.9494C71.5395 52.5763 76.857 48.4367 76.857 48.4367C73.2464 45.3955 69.2135 47.3318 67.6554 48.2956C68.8765 46.3679 69.6877 44.855 70.1207 43.9958C70.1312 44.0025 70.1447 44.0073 70.1552 44.014C70.1802 43.943 70.2023 43.8719 70.2282 43.8009C75.7415 44.2982 77.8035 37.9795 77.8035 37.9795C74.3504 37.6137 72.2192 39.6105 71.0307 41.3577C71.9034 38.519 72.5399 35.7561 72.992 33.1161C78.7587 33.4627 80.4234 26.783 80.4234 26.783C75.8394 26.6179 73.8378 30.4003 73.1466 32.1926Z" fill="#F8F8F8"/>
<path d="M47.7939 67.4053C47.7939 67.4053 51.2643 61.6309 46.8483 57.572C46.8483 57.572 43.2647 63.6047 47.7939 67.4053Z" fill="#F8F8F8"/>
<path d="M26.96 51.0863C23.024 54.2265 24.5456 58.9487 25.136 60.3868C22.761 58.102 20.7392 55.8249 19.0506 53.7033C23.5501 50.2012 20.4992 44.1129 20.4992 44.1129C16.8474 47.0265 17.8947 51.3014 18.537 53.0534C16.8234 50.8454 15.4794 48.8342 14.4733 47.1926C18.7597 43.6742 15.7818 37.7202 15.7818 37.7202C12.7981 40.101 12.9546 43.3929 13.4605 45.4751C12.9632 44.5948 12.609 43.9094 12.393 43.4716C11.6816 41.4412 11.1008 39.4434 10.6237 37.4927C16.0227 36.8822 16.8762 30.3926 16.8762 30.3926C12.5274 30.7372 10.9098 34.3612 10.3482 36.3148C9.98338 34.6905 9.69154 33.1036 9.4621 31.5638C15.2019 31.6156 16.5584 24.9033 16.5584 24.9033C11.5386 24.9503 9.82018 29.5785 9.39202 31.0895C8.93122 27.8322 8.7421 24.7958 8.72002 22.0886C14.4186 22.103 15.7703 15.43 15.7703 15.43C11.1162 15.4732 9.30178 19.4562 8.72002 21.2409C8.73154 18.454 8.91106 16.0482 9.12994 14.1398C14.672 14.0082 15.9968 7.48791 15.9968 7.48791C12.1827 7.52343 10.2762 10.2066 9.3901 12.1583C9.60034 10.7644 9.79618 9.85047 9.87682 9.49911C14.2208 6.72279 12.5207 0.688232 12.5207 0.688232C7.2829 3.43575 9.02338 9.75639 9.0733 9.93111C8.8861 10.8556 8.58082 12.5855 8.34754 14.9289C7.71586 13.2114 5.73442 9.19479 1.01314 9.36375C1.01314 9.36375 2.64898 15.9014 8.27554 15.6988C8.1037 17.6639 7.9933 20.0054 8.03554 22.6386C7.31554 20.8146 5.30146 17.1436 0.787537 17.3049C0.787537 17.3049 2.4253 23.8492 8.05762 23.6399C8.1373 26.2569 8.37346 29.134 8.8525 32.1906C8.16226 30.3983 6.1597 26.615 1.5757 26.7791C1.5757 26.7791 3.24034 33.4588 9.00706 33.1122C9.45826 35.7522 10.0947 38.5151 10.9683 41.3538C9.77986 39.6066 7.64866 37.6098 4.19554 37.9756C4.19554 37.9756 6.25666 44.2953 11.7709 43.797C11.7959 43.8681 11.8179 43.9391 11.8439 44.0102C11.8544 44.0034 11.8679 43.9986 11.8784 43.9919C12.3114 44.8502 13.1226 46.3631 14.3437 48.2918C12.7856 47.3279 8.75362 45.3916 5.1421 48.4329C5.1421 48.4329 10.4595 52.5724 14.7642 48.9455C15.8384 50.5967 17.1872 52.5042 18.8403 54.549C17.1421 53.5554 13.304 51.9244 9.85954 54.8246C9.85954 54.8246 15.1808 58.967 19.4864 55.3334C21.1597 57.3426 23.1152 59.4575 25.3722 61.5657C23.7152 60.5788 19.8186 58.8518 16.3203 61.798C16.3203 61.798 21.7453 66.0287 26.0711 62.2079C28.0496 64.005 30.2499 65.7839 32.6816 67.4783C30.6695 66.839 27.7703 66.5903 25.2839 68.9999C25.2839 68.9999 30.8019 72.7036 34.8368 68.9154C36.1319 69.742 37.4807 70.5446 38.8976 71.3068L39.2269 70.6953C33.7367 67.7433 29.1834 64.2287 25.472 60.7094C30.033 57.215 26.96 51.0863 26.96 51.0863Z" fill="#F8F8F8"/>
<path d="M35.1517 57.572C30.7367 61.6309 34.2061 67.4053 34.2061 67.4053C38.7354 63.6047 35.1517 57.572 35.1517 57.572Z" fill="#F8F8F8"/>
</svg>
