<svg width="80" height="60" viewBox="0 0 80 60" fill="none" xmlns="http://www.w3.org/2000/svg">
<mask id="path-1-inside-1_368_716" fill="white">
<path d="M80 0L5.99999 1.29386e-05C2.68629 1.3518e-05 -7.15971e-06 2.68631 -6.58032e-06 6.00001L2.86134e-06 60L80 60L80 0Z"/>
</mask>
<path d="M80 -3L5.99999 -2.99999C1.02943 -2.99999 -3.00001 1.02945 -3.00001 6.00001L2.99999 6.00001C2.99999 4.34316 4.34314 3.00001 5.99999 3.00001L80 3L80 -3ZM2.86134e-06 60L80 60L2.86134e-06 60ZM80 60L80 0L80 60ZM5.99999 -2.99999C1.02943 -2.99999 -3.00001 1.02945 -3.00001 6.00001L-3 60L3 60L2.99999 6.00001C2.99999 4.34316 4.34314 3.00001 5.99999 3.00001L5.99999 -2.99999Z" fill="#FF8200" mask="url(#path-1-inside-1_368_716)"/>
</svg>
