<svg width="22" height="19" viewBox="0 0 22 19" fill="none" xmlns="http://www.w3.org/2000/svg">
<path fill-rule="evenodd" clip-rule="evenodd" d="M6.88819 18.3733C15.0608 18.3733 19.6774 11.3785 19.3993 5.10481C20.2589 4.47632 21.0055 3.69032 21.596 2.79581C20.8062 3.15075 19.9577 3.39039 19.0676 3.49815C19.9763 2.94653 20.6739 2.07236 21.0026 1.0309C20.1518 1.54183 19.2104 1.91335 18.2079 2.11305C17.4048 1.24642 16.2611 0.70459 14.9947 0.70459C12.1539 0.70459 10.0658 3.39114 10.7068 6.18169C7.04882 5.99556 3.80579 4.21934 1.63509 1.52073C0.481702 3.52604 1.0372 6.14854 2.99745 7.47561C2.27537 7.453 1.59642 7.25179 1.003 6.91871C0.955403 8.9843 2.41666 10.9173 4.53382 11.3483C3.91436 11.5186 3.23616 11.5578 2.54606 11.4244C3.10602 13.1969 4.73163 14.4863 6.65766 14.5224C4.80748 15.992 2.47615 16.6483 0.141113 16.3695C2.08946 17.6348 4.40294 18.3733 6.88819 18.3733Z" fill="#6E2B9E"/>
</svg>
