<svg width="20" height="19" viewBox="0 0 20 19" fill="none" xmlns="http://www.w3.org/2000/svg">
<path d="M0.742189 14.6612C0.742189 15.385 0.981102 16.0005 1.45893 16.5077C1.93675 17.015 2.51844 17.2683 3.204 17.2677H16.3966C17.0821 17.2677 17.6638 17.0144 18.1417 16.5077C18.6195 16.0011 18.8584 15.3856 18.8584 14.6612V4.16251C18.8584 3.43871 18.6171 2.81613 18.1346 2.29475C17.6521 1.77338 17.0727 1.5127 16.3966 1.5127H3.204C2.52845 1.5127 1.94911 1.77338 1.46599 2.29475C0.982867 2.81613 0.7416 3.43871 0.742189 4.16251V14.6612ZM7.33143 12.7643V6.0594C7.33143 5.99173 7.35085 5.93877 7.38968 5.90052C7.41852 5.8911 7.44265 5.8864 7.46206 5.8864L7.53444 5.90052L13.8483 9.26002C13.8871 9.29885 13.9065 9.34711 13.9065 9.40478C13.9065 9.44361 13.8871 9.48216 13.8483 9.52041L7.53444 12.8799C7.51503 12.8993 7.49561 12.909 7.47619 12.909C7.43735 12.909 7.40852 12.8993 7.38968 12.8799C7.35085 12.8411 7.33143 12.8025 7.33143 12.7643Z" fill="#6E2B9E"/>
</svg>
