<svg width="16" height="16" viewBox="0 0 16 16" fill="none" xmlns="http://www.w3.org/2000/svg">
<path d="M1.75 14.2498H2.66667L11.8958 5.02067L10.9792 4.104L1.75 13.3332V14.2498ZM14.5417 4.12484L11.875 1.45817L12.75 0.58317C12.9861 0.347059 13.2778 0.229004 13.625 0.229004C13.9722 0.229004 14.2639 0.347059 14.5 0.58317L15.4167 1.49984C15.6528 1.73595 15.7708 2.02761 15.7708 2.37484C15.7708 2.72206 15.6528 3.01373 15.4167 3.24984L14.5417 4.12484ZM13.6667 4.99984L3.16667 15.4998H0.5V12.8332L11 2.33317L13.6667 4.99984ZM11.4375 4.56234L10.9792 4.104L11.8958 5.02067L11.4375 4.56234Z" fill="#6E2B9E"/>
</svg>
