<svg width="172" height="173" viewBox="0 0 172 173" fill="none" xmlns="http://www.w3.org/2000/svg">
<path d="M162.223 46.3082C161.723 45.342 160.86 44.6151 159.824 44.2873C158.788 43.9596 157.664 44.0585 156.701 44.5604C155.737 45.0624 155.013 45.9272 154.687 46.9649C154.361 48.0026 154.461 49.1262 154.965 50.0897C162.645 64.7634 165.427 81.5114 162.905 97.8812C160.382 114.252 152.687 129.383 140.947 141.059C110.628 171.397 61.2971 171.403 30.972 141.059H30.9707C29.8013 139.886 28.0408 139.535 26.5102 140.169C24.9809 140.804 23.9844 142.298 23.9844 143.955V164.673C23.9844 166.935 25.8177 168.769 28.0773 168.769C30.3381 168.769 32.1702 166.935 32.1702 164.673V153.126C48.6975 166.359 69.517 173.033 90.6484 171.875C111.78 170.718 131.747 161.809 146.732 146.85C173.399 120.161 179.625 79.7537 162.221 46.307L162.223 46.3082Z" fill="#2D2D2D"/>
<path d="M30.9774 30.9884C40.6301 21.3275 52.6524 14.3795 65.8362 10.8424C79.0229 7.30667 92.9059 7.30667 106.09 10.8424C119.275 14.3795 131.298 21.3275 140.949 30.9884C142.118 32.1613 143.88 32.5124 145.409 31.8791C146.939 31.2446 147.936 29.7504 147.935 28.0924V7.37451C147.935 5.1131 146.103 3.27814 143.842 3.27814C141.581 3.27814 139.749 5.113 139.749 7.37451V18.9142C124.363 6.56689 105.203 -0.110473 85.4787 0.00138278C65.7579 0.114516 46.6751 7.01065 31.4277 19.5321C16.183 32.0549 5.7041 49.4428 1.74789 68.7817C-2.20864 88.1187 0.598022 108.231 9.69822 125.741C10.7416 127.748 13.2127 128.527 15.2164 127.483C17.2212 126.437 17.9995 123.965 16.9562 121.958C9.27462 107.286 6.49158 90.5381 9.01351 74.1669C11.5355 57.7958 19.2313 42.6634 30.9705 30.9895L30.9774 30.9884Z" fill="#2D2D2D"/>
<path d="M85.9669 22.9492C77.3823 22.9596 69.1512 26.3771 63.0809 32.4526C57.0105 38.5281 53.5958 46.7661 53.5855 55.358V71.5803H48.6431C44.953 71.5842 41.4162 73.0524 38.8075 75.6637C36.1987 78.275 34.7315 81.8147 34.7275 85.5076V125.356C34.7314 129.049 36.1984 132.589 38.8075 135.2C41.4166 137.811 44.9533 139.279 48.6431 139.283H123.293C126.983 139.28 130.52 137.811 133.129 135.2C135.738 132.589 137.205 129.049 137.209 125.356V85.5076C137.205 81.8144 135.738 78.2747 133.129 75.6637C130.52 73.0527 126.983 71.5843 123.293 71.5803H118.351V55.358C118.341 46.7651 114.925 38.5267 108.854 32.4513C102.783 26.3758 94.5515 22.9582 85.9659 22.9492H85.9669ZM61.7713 55.358C61.7713 46.7065 66.3838 38.7115 73.8704 34.3851C81.3571 30.0587 90.5807 30.0587 98.0673 34.3851C105.554 38.7115 110.165 46.7065 110.165 55.358V71.5803H61.772L61.7713 55.358ZM129.024 85.5063V125.355C129.023 126.875 128.419 128.333 127.344 129.408C126.27 130.484 124.813 131.088 123.294 131.09H48.6438C47.1236 131.088 45.6684 130.484 44.5938 129.408C43.5193 128.333 42.9151 126.875 42.9138 125.355V85.5063C42.9151 83.9848 43.5193 82.5284 44.5938 81.4529C45.6684 80.3774 47.1236 79.7728 48.6438 79.7715H123.294C124.813 79.7728 126.27 80.3774 127.344 81.4529C128.419 82.5283 129.023 83.9848 129.024 85.5063Z" fill="#2D2D2D"/>
<path d="M120.343 105.424C120.343 109.95 116.679 113.617 112.158 113.617C107.637 113.617 103.972 109.949 103.972 105.424C103.972 100.9 107.638 97.2319 112.158 97.2319C116.679 97.2319 120.343 100.901 120.343 105.424Z" fill="#2D2D2D"/>
<path d="M94.1556 105.424C94.1556 109.95 90.4915 113.617 85.9702 113.617C81.4498 113.617 77.7847 109.949 77.7847 105.424C77.7847 100.9 81.4502 97.2319 85.9702 97.2319C90.4918 97.2319 94.1556 100.901 94.1556 105.424Z" fill="#2D2D2D"/>
<path d="M67.9637 105.424C67.9637 109.95 64.2996 113.617 59.7783 113.617C55.2579 113.617 51.5928 109.949 51.5928 105.424C51.5928 100.9 55.2583 97.2319 59.7783 97.2319C64.2999 97.2319 67.9637 100.901 67.9637 105.424Z" fill="#2D2D2D"/>
</svg>
