<svg width="80" height="60" viewBox="0 0 80 60" fill="none" xmlns="http://www.w3.org/2000/svg">
<mask id="path-1-inside-1_368_719" fill="white">
<path d="M80 60L5.99999 60C2.68629 60 -7.86424e-06 57.3137 -8.15393e-06 54L-1.28748e-05 2.22526e-05L80 1.52588e-05L80 60Z"/>
</mask>
<path d="M80 63L5.99999 63C1.02943 63 -3.00001 58.9706 -3.00001 54L2.99999 54C2.99999 55.6569 4.34314 57 5.99999 57L80 57L80 63ZM-1.28748e-05 2.22526e-05L80 1.52588e-05L-1.28748e-05 2.22526e-05ZM80 1.52588e-05L80 60L80 1.52588e-05ZM5.99999 63C1.02943 63 -3.00001 58.9706 -3.00001 54L-3.00001 2.25149e-05L2.99999 2.19903e-05L2.99999 54C2.99999 55.6569 4.34314 57 5.99999 57L5.99999 63Z" fill="#FF8200" mask="url(#path-1-inside-1_368_719)"/>
</svg>
