<svg width="80" height="60" viewBox="0 0 80 60" fill="none" xmlns="http://www.w3.org/2000/svg">
<mask id="path-1-inside-1_368_718" fill="white">
<path d="M0 0L74 -6.46929e-06C77.3137 -6.75898e-06 80 2.68628 80 5.99999L80 60L5.24537e-06 60L0 0Z"/>
</mask>
<path d="M-2.62268e-07 -3L74 -3.00001C78.9706 -3.00001 83 1.02943 83 5.99999L77 5.99999C77 4.34314 75.6569 2.99999 74 2.99999L2.62268e-07 3L-2.62268e-07 -3ZM80 60L5.24537e-06 60L80 60ZM5.24537e-06 60L0 0L5.24537e-06 60ZM74 -3.00001C78.9706 -3.00001 83 1.02943 83 5.99999L83 60L77 60L77 5.99999C77 4.34314 75.6569 2.99999 74 2.99999L74 -3.00001Z" fill="#FF8200" mask="url(#path-1-inside-1_368_718)"/>
</svg>
