<svg width="16" height="16" viewBox="0 0 16 16" fill="none" xmlns="http://www.w3.org/2000/svg">
<path d="M14.9408 16L9.26197 10.297C8.81127 10.6591 8.259 10.9422 7.60518 11.1461C6.95196 11.3495 6.32488 11.4512 5.72394 11.4512C4.11643 11.4512 2.76071 10.8969 1.65679 9.78829C0.552263 8.67908 0 7.32485 0 5.7256C0 4.12636 0.552263 2.77243 1.65679 1.66382C2.76071 0.554606 4.10892 0 5.70141 0C7.2939 0 8.64601 0.554606 9.75775 1.66382C10.8695 2.77243 11.4254 4.12636 11.4254 5.7256C11.4254 6.37435 11.3241 7.00802 11.1216 7.62659C10.9185 8.24517 10.6366 8.77322 10.2761 9.21075L16 14.959L14.9408 16ZM5.72394 9.95757C6.9108 9.95757 7.90986 9.55383 8.72113 8.74637C9.53239 7.9395 9.93803 6.93258 9.93803 5.7256C9.93803 4.51862 9.53239 3.5114 8.72113 2.70393C7.90986 1.89707 6.9108 1.49364 5.72394 1.49364C4.52207 1.49364 3.51549 1.89707 2.70423 2.70393C1.89296 3.5114 1.48732 4.51862 1.48732 5.7256C1.48732 6.93258 1.89296 7.9395 2.70423 8.74637C3.51549 9.55383 4.52207 9.95757 5.72394 9.95757Z" fill="#7E7E7E"/>
</svg>
